PathFileType  4	(X/Y/Z) /Users/kristensteudel/Documents/NMBL_Research/BertecForceProcessing/anc_files/
DataRate	CameraRate	NumFrames	NumMarkers	Units	OrigDataRate	OrigDataStartFrame	OrigNumFrames
  200.0		  200.0		    8		     46		 mm	  200.0	      91	    724
Frame#	Time	r_knee			r_shank_antsup			r_ankle			r_calc			r_5meta			r_toe			L_knee			L_shank_antsup			L_ankle			L_calc			L_5meta			L_toe			r_sh2			r_sh3			r_sh4			L_sh2			L_sh3			r_thigh1			r_thigh2			r_thigh3			r_thigh4			r_thigh5			L_thigh1			L_thigh2			L_thigh3			L_thigh4			r.ASIS			r.PSIS			L.ASIS			L.PSIS			C7			R_Shoulder			L_Shoulder			Sternum			R_humerus			R_elbow_med			R_elbow_lat			R_forearm			R_wrist_radius			R_wrist_ulna			L_humerus			L_elbow_med			L_elbow_lat			L_forearm			L_wrist_radius			L_wrist_ulna			
		X1	Y1	Z1	X2	Y2	Z2	X3	Y3	Z3	X4	Y4	Z4	X5	Y5	Z5	X6	Y6	Z6	X7	Y7	Z7	X8	Y8	Z8	X9	Y9	Z9	X10	Y10	Z10	X11	Y11	Z11	X12	Y12	Z12	X13	Y13	Z13	X14	Y14	Z14	X15	Y15	Z15	X16	Y16	Z16	X17	Y17	Z17	X18	Y18	Z18	X19	Y19	Z19	X20	Y20	Z20	X21	Y21	Z21	X22	Y22	Z22	X23	Y23	Z23	X24	Y24	Z24	X25	Y25	Z25	X26	Y26	Z26	X27	Y27	Z27	X28	Y28	Z28	X29	Y29	Z29	X30	Y30	Z30	X31	Y31	Z31	X32	Y32	Z32	X33	Y33	Z33	X34	Y34	Z34	X35	Y35	Z35	X36	Y36	Z36	X37	Y37	Z37	X38	Y38	Z38	X39	Y39	Z39	X40	Y40	Z40	X41	Y41	Z41	X42	Y42	Z42	X43	Y43	Z43	X44	Y44	Z44	X45	Y45	Z45	X46	Y46	Z46	

91	0.45000	1034.012	580.860	-181.239	1097.855	489.966	-178.028	1184.485	164.925	-226.773	1127.520	124.457	-303.892	1316.015	111.278	-200.502	1351.334	166.123	-244.495	669.889	554.446	-464.118	563.860	488.571	-466.161	251.511	469.402	-448.610	235.870	540.977	-416.887	159.065	331.820	-410.992	184.908	318.083	-337.136	1135.654	377.381	-189.700	1029.761	464.274	-162.471	1056.432	354.379	-189.188	549.893	574.097	-495.511	430.942	548.351	-479.992	1009.082	801.033	-154.037	1048.470	695.669	-175.796	1023.270	648.760	-151.608	912.688	757.196	-117.124	955.768	655.993	-160.327	850.807	720.846	-468.679	785.603	598.036	-448.486	750.779	769.159	-512.307	689.177	648.362	-476.272	908.661	1036.373	-181.515	714.843	1093.702	-274.327	928.881	1034.411	-443.751	721.995	1091.974	-380.209	823.208	1579.948	-337.377	800.868	1553.304	-149.745	919.088	1548.801	-498.354	966.067	1481.106	-286.757	655.649	1391.982	-97.917	537.560	1327.323	-199.048	520.185	1363.001	-118.198	632.634	1234.749	-70.684	703.244	1141.930	-56.781	655.902	1120.181	-47.435	877.521	1327.180	-613.883	742.567	1225.482	-598.462	798.403	1267.560	-670.051	934.047	1221.620	-584.400	997.464	1232.305	-486.251	1006.069	1172.257	-523.289
92	0.45500	1029.740	578.937	-181.804	1092.570	486.610	-178.247	1179.608	161.508	-228.444	1122.723	122.132	-305.771	1311.084	106.880	-202.913	1346.626	161.918	-246.385	678.020	549.517	-464.552	570.130	488.004	-466.466	257.263	483.817	-448.883	244.443	555.608	-417.121	160.089	348.933	-411.357	185.214	334.820	-337.782	1130.491	374.206	-190.514	1024.240	460.670	-163.776	1051.380	350.971	-191.397	559.836	574.248	-496.355	439.740	553.372	-480.342	1004.756	798.855	-154.973	1044.348	693.354	-175.838	1019.235	646.361	-152.811	909.249	754.871	-117.040	951.746	653.885	-161.156	855.427	718.875	-467.985	792.786	594.402	-448.587	754.608	764.936	-512.963	695.687	642.440	-476.974	907.780	1034.539	-182.087	714.165	1091.864	-273.929	928.358	1033.196	-443.639	721.336	1090.576	-380.357	823.276	1578.584	-336.906	801.477	1551.449	-148.732	918.411	1547.792	-497.476	965.984	1479.210	-286.655	657.215	1388.585	-96.686	539.765	1322.737	-197.583	522.053	1358.391	-116.399	636.019	1230.892	-69.522	707.318	1138.636	-55.397	660.175	1116.480	-46.202	875.806	1326.610	-613.847	739.962	1225.468	-597.661	795.657	1267.241	-669.457	931.323	1219.086	-584.418	995.386	1228.798	-486.639	1003.376	1168.984	-523.746
93	0.46000	1025.231	576.808	-182.394	1086.598	482.708	-178.689	1172.802	157.325	-230.319	1115.786	119.247	-307.277	1304.273	101.256	-205.509	1340.161	156.497	-248.297	686.465	544.466	-465.386	576.971	487.565	-467.195	264.281	497.551	-449.039	253.860	569.242	-417.069	163.011	365.303	-412.331	187.518	351.189	-338.440	1124.259	370.337	-191.485	1018.085	456.881	-165.546	1045.190	347.368	-193.258	570.019	573.882	-497.270	448.560	558.244	-480.719	1001.069	798.010	-155.867	1041.434	692.747	-177.558	1016.202	645.501	-154.077	906.391	753.172	-117.048	948.610	652.430	-161.197	859.973	716.541	-467.646	800.297	590.647	-449.157	758.943	760.338	-513.088	702.276	636.705	-478.203	906.557	1032.559	-182.451	713.119	1089.636	-273.498	927.451	1031.655	-443.605	720.263	1088.727	-380.576	823.256	1577.024	-335.696	802.115	1549.017	-147.572	917.689	1546.359	-496.616	965.963	1477.055	-286.531	658.830	1384.911	-95.005	542.104	1317.826	-195.588	524.049	1353.048	-114.413	639.468	1226.583	-68.101	711.646	1135.039	-54.088	665.046	1112.448	-44.765	873.701	1325.638	-613.857	736.922	1225.169	-596.810	793.027	1266.671	-668.611	928.383	1216.094	-584.708	993.264	1224.673	-487.538	1000.136	1164.958	-524.545
94	0.46500	1020.674	574.506	-182.874	1080.410	478.468	-179.413	1164.194	152.581	-232.396	1106.549	115.645	-309.745	1295.434	94.715	-208.675	1331.623	150.160	-250.644	695.377	539.263	-466.576	583.561	488.486	-466.757	272.249	510.469	-449.298	263.963	582.652	-416.282	167.589	380.510	-413.836	190.321	365.105	-340.087	1117.245	365.763	-192.552	1011.608	453.157	-167.028	1037.873	343.538	-195.118	581.520	572.918	-496.836	458.743	563.712	-481.146	998.034	797.954	-155.612	1038.370	692.800	-178.490	1013.698	645.159	-155.574	903.660	751.970	-117.526	945.926	651.076	-161.213	864.982	714.292	-467.353	808.246	586.867	-449.802	762.774	755.747	-513.510	709.217	630.626	-478.884	905.416	1030.512	-182.764	711.565	1087.128	-273.175	926.466	1029.902	-443.469	719.065	1086.404	-380.609	822.635	1574.776	-334.742	802.708	1546.361	-146.519	916.806	1544.769	-495.824	965.946	1474.559	-286.471	660.629	1380.782	-93.107	544.366	1312.215	-193.627	526.122	1347.204	-112.111	643.048	1221.962	-66.325	716.590	1131.284	-52.756	669.966	1108.119	-43.227	871.491	1324.355	-613.803	734.275	1224.451	-596.042	789.696	1265.762	-667.917	925.097	1212.559	-585.474	990.840	1220.241	-488.092	996.267	1159.939	-525.770
95	0.47000	1016.178	572.225	-183.424	1074.377	473.865	-179.929	1153.762	147.009	-234.793	1095.560	111.549	-311.987	1284.241	87.561	-211.260	1321.093	142.334	-253.820	704.453	534.507	-467.785	591.495	487.738	-467.657	281.340	522.754	-449.477	274.789	594.882	-415.669	173.727	394.902	-415.820	195.422	377.843	-342.460	1109.654	360.731	-193.687	1005.139	449.438	-168.270	1030.027	339.798	-197.003	592.388	573.062	-497.385	470.666	566.859	-480.078	995.725	797.850	-154.542	1035.852	693.279	-180.048	1011.217	644.667	-157.439	901.021	750.584	-117.917	943.140	649.157	-161.179	869.892	711.776	-467.438	818.806	582.853	-449.957	766.951	750.659	-513.772	716.353	624.382	-480.032	903.993	1028.350	-182.908	709.953	1084.403	-272.867	925.467	1027.763	-443.275	717.801	1083.792	-380.849	822.688	1572.398	-333.285	803.216	1543.270	-145.145	915.962	1542.736	-495.154	966.005	1471.776	-286.436	662.388	1376.244	-91.253	546.523	1306.151	-191.101	528.360	1340.907	-109.734	646.836	1216.996	-64.472	721.584	1127.202	-51.243	675.325	1103.524	-41.557	868.817	1322.577	-613.802	730.588	1223.655	-594.591	786.729	1264.567	-666.763	921.513	1208.796	-586.063	988.082	1215.229	-488.911	992.468	1154.917	-526.991
96	0.47500	1011.638	569.828	-183.051	1068.480	469.120	-180.185	1141.179	140.751	-237.260	1082.711	107.045	-314.090	1271.520	79.471	-214.477	1308.941	134.017	-257.111	713.554	528.750	-468.525	599.844	487.039	-469.480	291.511	534.483	-449.602	286.565	606.051	-414.871	181.467	407.870	-418.232	202.772	389.679	-345.567	1101.570	355.473	-194.971	998.810	446.168	-169.228	1021.436	336.048	-198.574	603.763	573.104	-497.828	482.588	570.534	-479.420	993.829	796.976	-153.280	1032.311	691.779	-181.176	1008.643	643.711	-159.444	898.576	749.055	-118.536	940.643	647.623	-161.320	875.003	709.105	-467.478	826.750	578.713	-450.482	771.219	745.704	-514.582	723.359	618.192	-481.343	902.335	1026.211	-182.863	708.154	1081.363	-273.120	924.140	1025.352	-443.214	716.182	1080.766	-381.194	822.946	1569.173	-332.562	803.791	1539.800	-144.011	914.866	1540.528	-494.639	966.056	1468.816	-286.388	664.312	1371.127	-89.110	548.912	1299.381	-188.153	530.734	1334.202	-106.619	650.851	1211.735	-62.462	726.884	1122.795	-49.796	681.118	1098.681	-39.856	865.886	1320.600	-613.724	726.941	1222.817	-593.517	783.119	1263.165	-665.791	917.738	1204.738	-586.756	985.509	1209.841	-490.028	988.422	1149.441	-528.421
97	0.48000	1007.809	567.479	-183.339	1062.879	464.364	-180.753	1128.056	134.732	-240.031	1068.163	102.398	-316.156	1257.286	70.764	-218.358	1295.128	124.792	-260.885	723.308	523.400	-469.993	608.525	486.257	-471.921	302.688	544.800	-450.127	299.261	616.217	-414.126	190.697	419.515	-420.894	211.410	400.226	-348.285	1093.207	349.841	-196.392	992.574	442.968	-170.361	1012.856	331.993	-200.454	615.662	572.878	-497.748	494.109	574.665	-479.689	992.389	795.570	-152.358	1030.053	690.573	-182.192	1006.200	642.248	-161.249	896.491	747.536	-119.528	938.028	646.012	-161.651	880.106	706.533	-467.713	834.746	574.800	-451.423	776.055	740.642	-515.015	729.801	611.621	-480.733	900.716	1023.883	-182.703	706.348	1078.258	-273.330	922.753	1022.504	-443.000	714.581	1077.553	-381.359	822.784	1566.111	-331.093	804.563	1535.908	-142.587	913.880	1538.061	-494.309	966.157	1465.565	-286.407	666.381	1365.655	-87.004	551.066	1292.451	-185.244	533.429	1326.946	-103.469	655.084	1206.051	-59.991	732.537	1118.235	-48.358	687.342	1093.422	-37.745	862.683	1318.207	-613.572	723.987	1221.692	-592.236	779.072	1261.755	-665.044	913.651	1200.397	-587.478	982.670	1204.041	-491.174	984.126	1143.730	-530.046
98	0.48500	1004.281	564.858	-183.604	1057.389	459.296	-181.541	1113.056	128.514	-242.156	1051.626	97.330	-318.002	1241.026	61.307	-222.161	1279.615	114.618	-265.043	733.355	518.224	-471.516	618.519	485.720	-473.071	315.015	554.191	-450.764	312.740	625.282	-413.599	201.234	430.211	-424.229	220.905	409.513	-351.872	1084.438	344.203	-197.914	986.403	439.906	-171.354	1003.370	328.964	-201.261	627.864	572.537	-497.886	506.644	577.511	-479.302	991.412	793.542	-151.632	1027.119	688.571	-182.309	1003.885	640.255	-162.463	894.665	746.047	-121.127	935.712	644.220	-162.093	885.214	704.005	-468.104	843.664	571.157	-452.958	780.490	735.471	-516.153	739.094	605.339	-483.020	899.054	1021.482	-182.347	703.322	1075.332	-273.137	921.179	1019.362	-443.002	712.843	1074.126	-381.641	822.503	1562.740	-329.474	805.067	1531.814	-141.274	912.739	1535.265	-494.038	966.345	1462.141	-286.464	668.734	1359.621	-84.776	553.443	1285.113	-182.023	536.095	1319.451	-99.795	659.493	1200.089	-57.551	738.613	1113.466	-46.762	693.762	1088.026	-36.155	859.189	1315.540	-613.308	719.664	1220.317	-590.696	775.054	1259.996	-663.940	909.335	1195.808	-588.310	980.729	1198.111	-492.663	979.488	1137.667	-531.846
